<mxfile host="app.diagrams.net" modified="2024-03-14T08:28:48.100Z" agent="Mozilla/5.0 (Windows NT 10.0; Win64; x64) AppleWebKit/537.36 (KHTML, like Gecko) Chrome/120.0.0.0 Safari/537.36" etag="VPMrTJJckZMfevy8AL58" version="24.0.6" type="github">
  <diagram name="第 1 页" id="yCaKgUssqRWdy60jEKlt">
    <mxGraphModel dx="1350" dy="630" grid="1" gridSize="10" guides="1" tooltips="1" connect="1" arrows="1" fold="0" page="1" pageScale="1" pageWidth="827" pageHeight="1169" math="0" shadow="0">
      <root>
        <mxCell id="0" />
        <mxCell id="1" parent="0" />
        <mxCell id="Vyf3l9Vs4s22SNfBj9JM-1" value="" style="rounded=0;whiteSpace=wrap;html=1;fontFamily=Architects Daughter;fontSource=https%3A%2F%2Ffonts.googleapis.com%2Fcss%3Ffamily%3DArchitects%2BDaughter;" vertex="1" parent="1">
          <mxGeometry x="254" y="200" width="160" height="80" as="geometry" />
        </mxCell>
        <mxCell id="Vyf3l9Vs4s22SNfBj9JM-2" value="" style="shape=note;whiteSpace=wrap;html=1;backgroundOutline=1;fontColor=#000000;darkOpacity=0.05;fillColor=#FFF9B2;strokeColor=none;fillStyle=solid;direction=west;gradientDirection=north;gradientColor=#FFF2A1;shadow=1;size=20;pointerEvents=1;fontFamily=Architects Daughter;fontSource=https%3A%2F%2Ffonts.googleapis.com%2Fcss%3Ffamily%3DArchitects%2BDaughter;" vertex="1" parent="1">
          <mxGeometry x="630" y="90" width="140" height="160" as="geometry" />
        </mxCell>
      </root>
    </mxGraphModel>
  </diagram>
</mxfile>
